<svg id="Слой_1" data-name="Слой 1" xmlns="http://www.w3.org/2000/svg" viewBox="0 0 388.27 476.68"><defs><style>.cls-1{fill:#3a3a3a;}.cls-2{fill:#2e8cff;}</style></defs><path class="cls-1" d="M388.27,325.05c-15.62,22.83-56.51,76.15-129.45,107.6a283,283,0,0,1-166.16,18Q86.84,435,81,419.35l92.53-4.58a264.52,264.52,0,0,0,72-19.57c35-15.11,58.62-34.34,79.44-51.51a459,459,0,0,0,51.65-49.91Q382.46,309.41,388.27,325.05Z"/><path class="cls-1" d="M348,236c-7.31,26.13-28.54,88.39-87.56,138.82-60.38,51.6-125.84,61.36-152.25,63.79L86.66,412.07l86.59-30.35a249.65,249.65,0,0,0,62.06-38.86c28.28-24.21,44.42-49.16,58.55-71.36a426.77,426.77,0,0,0,32.61-62Z"/><path class="cls-1" d="M305.69,72.82c-2.1,36.48-10.89,124.85-59.54,212.09C196.38,374.18,133.31,411.3,107.57,424.33L81,398.13l80-71.62a356.23,356.23,0,0,0,53.94-73.44C238.25,211.21,249.35,172.93,259,139a768.92,768.92,0,0,0,20.14-92.34Z"/><rect class="cls-1" x="-80.6" y="231.39" width="292.43" height="44.66" transform="translate(-188.11 319.34) rotate(-90)"/><rect class="cls-1" x="43.28" y="41.96" width="292.43" height="44.66" transform="translate(378.99 128.59) rotate(180)"/><circle class="cls-2" cx="65.61" cy="64.29" r="64.29"/><path class="cls-2" d="M128.59,412.39V413A64.29,64.29,0,0,1,8.34,444a64.27,64.27,0,0,1,56-95.93A64.37,64.37,0,0,1,108.83,366a64.05,64.05,0,0,1,19.43,40A58.8,58.8,0,0,1,128.59,412.39Z"/><circle class="cls-2" cx="283.83" cy="64.29" r="64.29"/></svg>