<?xml version="1.0" standalone="no"?>
<!DOCTYPE svg PUBLIC "-//W3C//DTD SVG 20010904//EN"
 "http://www.w3.org/TR/2001/REC-SVG-20010904/DTD/svg10.dtd">
<svg version="1.0" xmlns="http://www.w3.org/2000/svg"
 width="700.000000pt" height="700.000000pt" viewBox="0 0 700.000000 700.000000"
 preserveAspectRatio="xMidYMid meet">
<metadata>
Created by potrace 1.14, written by Peter Selinger 2001-2017
</metadata>
<g transform="translate(0.000000,700.000000) scale(0.100000,-0.100000)"
fill="#000000" stroke="none">
<path d="M1504 6950 c-369 -84 -655 -382 -722 -751 -17 -90 -13 -266 8 -362
63 -287 278 -551 535 -658 l55 -23 0 -1658 0 -1658 -27 -6 c-16 -4 -57 -22
-93 -41 -380 -202 -575 -609 -490 -1023 67 -326 302 -593 615 -698 104 -35
157 -44 265 -47 269 -8 505 83 690 263 l64 64 86 -7 c47 -4 101 -9 120 -11 63
-7 483 -7 550 0 36 3 97 8 135 11 39 3 81 7 95 10 14 3 45 7 70 10 25 3 81 12
125 20 44 8 89 17 100 19 27 5 99 19 105 21 3 1 21 5 40 9 19 4 106 28 192 52
899 251 1732 841 2311 1636 l78 107 -62 168 c-96 260 -98 266 -107 275 -4 4
-38 -25 -74 -64 -203 -224 -500 -504 -748 -703 -41 -33 -77 -62 -80 -65 -20
-23 -248 -193 -350 -262 -311 -212 -576 -347 -924 -470 -141 -50 -187 -59
-119 -23 21 11 64 36 96 57 32 21 60 38 63 38 7 0 247 167 289 201 11 9 63 52
115 94 131 108 427 407 533 540 329 412 561 842 728 1347 27 81 49 154 49 161
0 8 -9 25 -21 38 -11 13 -79 97 -151 186 -73 90 -134 163 -137 163 -3 0 -15
-21 -25 -48 -79 -198 -298 -605 -476 -887 -389 -613 -712 -956 -1210 -1285
-184 -121 -495 -284 -585 -306 l-30 -7 30 24 c17 13 39 33 51 44 167 159 301
296 394 405 36 41 73 83 83 95 10 11 37 45 60 75 23 30 48 61 54 68 26 27 193
262 265 372 310 476 579 1051 747 1600 23 74 48 155 56 180 13 45 41 149 76
290 13 55 14 57 34 150 9 41 19 86 21 100 3 14 7 32 9 40 2 8 7 31 10 50 3 19
12 69 20 110 8 41 16 92 20 112 5 31 10 38 38 44 83 18 231 96 325 172 134
108 275 315 307 452 30 124 37 180 37 275 1 192 -50 361 -152 514 -131 193
-300 318 -527 388 -80 24 -103 27 -248 27 -178 1 -257 -14 -390 -74 -202 -90
-383 -271 -471 -469 l-27 -61 -711 0 -711 1 -29 63 c-15 36 -47 93 -69 128
-43 65 -166 196 -227 239 -108 78 -241 136 -373 163 -101 20 -285 19 -383 -4z
m2530 -1302 c88 -198 269 -377 473 -469 37 -17 69 -32 71 -34 5 -5 -144 -521
-209 -720 -179 -554 -373 -978 -645 -1410 -61 -97 -237 -352 -253 -365 -3 -3
-19 -23 -36 -45 -41 -56 -175 -216 -254 -303 -36 -41 -144 -144 -240 -230 -96
-86 -185 -166 -197 -177 -12 -11 -50 -45 -84 -75 -34 -30 -74 -66 -89 -79 -14
-13 -46 -42 -71 -64 -25 -22 -59 -53 -75 -69 l-31 -28 -59 56 c-69 64 -165
130 -247 170 l-58 28 0 1658 0 1658 80 39 c111 55 163 93 256 185 98 98 154
181 205 304 l14 32 711 0 711 0 27 -62z"/>
</g>
</svg>
